<svg width="158" height="33" viewBox="0 0 158 33" fill="none" xmlns="http://www.w3.org/2000/svg">
<path d="M34.6131 33C33.8449 33 33.3226 32.6313 33.0461 31.8938C32.8003 31.1564 32.6773 30.419 32.6773 29.6816C32.6773 27.0391 34.0908 23.2444 36.9176 18.2975C38.7304 15.1941 41.5265 11.0154 45.3058 5.76119C41.2192 6.1299 35.9343 9.35615 29.4511 15.4399C24.2891 20.3254 20.6173 24.5195 18.4357 28.0223C17.6983 29.1592 17.3296 29.9735 17.3296 30.4651C17.3296 30.6802 17.391 30.8184 17.514 30.8799C17.6676 30.9413 17.7444 30.9721 17.7444 30.9721C17.7444 31.0335 17.4525 31.264 16.8687 31.6634C16.4385 31.9092 15.9008 32.0321 15.2556 32.0321C13.9651 32.0321 13.412 31.7402 13.5964 31.1564C14.0265 29.8045 15.4553 27.3156 17.8827 23.6899C21.0475 18.9888 23.1061 15.7779 24.0586 14.0573C26.148 10.3087 27.1927 7.34359 27.1927 5.16202C27.1927 3.62571 26.8086 2.56566 26.0405 1.98186C25.3031 1.39806 24.2584 1.10616 22.9064 1.10616C19.25 1.10616 15.3631 2.78074 11.2458 6.1299C9.55586 7.51258 7.98882 9.04889 6.54469 10.7388C5.10056 12.3981 3.93296 14.1187 3.0419 15.9008C2.15084 17.683 1.70531 19.4344 1.70531 21.155C1.70531 24.1047 3.07263 25.6103 5.80726 25.6718C9.61731 25.764 12.4902 24.4888 14.426 21.8464C15.1634 20.8324 15.5321 19.8799 15.5321 18.9888C15.5321 18.4665 15.3631 18.1131 15.0251 17.9288C14.9944 17.898 14.979 17.852 14.979 17.7905C14.979 17.6676 15.0712 17.6061 15.2556 17.6061C16.0545 17.6061 16.4539 18.1285 16.4539 19.1732C16.4539 19.8184 16.1927 20.6327 15.6704 21.6159C14.81 23.0908 13.5349 24.2584 11.845 25.1187C10.155 25.979 8.40363 26.4092 6.59078 26.4092C4.59358 26.4092 2.99581 25.81 1.79749 24.6117C0.599166 23.4134 4.77437e-06 21.8003 4.77437e-06 19.7723C4.77437e-06 14.9791 3.28771 9.93995 9.86312 4.65504C10.9693 3.76398 12.3212 2.9651 13.919 2.2584C15.5167 1.55169 17.1606 0.99862 18.8505 0.599179C20.5712 0.199739 22.1536 1.93494e-05 23.5977 1.93494e-05C25.4106 1.93494e-05 26.8394 0.353371 27.8841 1.06007C28.9595 1.73605 29.4972 2.91901 29.4972 4.60895C29.4972 6.79051 28.6061 9.67878 26.824 13.2737C26.4246 14.0726 25.9176 14.9944 25.3031 16.0391C24.6885 17.0838 23.9665 18.236 23.1369 19.4958C24.0894 18.2975 25.641 16.7765 27.7919 14.933C31.6634 11.676 35.243 9.0028 38.5307 6.91342C41.8184 4.79331 44.8142 3.24163 47.5181 2.2584C47.7946 2.13549 48.1019 2.07404 48.4399 2.07404C49.6075 2.07404 50.3449 2.73465 50.6522 4.05588C50.8058 4.57823 50.0684 5.66901 48.4399 7.32822C44.5991 11.2612 41.2807 15.655 38.4846 20.5098C35.9343 24.9958 34.6592 28.2528 34.6592 30.2807C34.6592 31.141 34.9511 31.5712 35.5349 31.5712C35.9036 31.5712 36.8254 31.2486 38.3002 30.6033C39.5907 30.0195 40.4357 29.6816 40.8352 29.5894C40.9888 29.6508 41.0656 29.7276 41.0656 29.8198C41.0656 30.2807 40.2514 30.926 38.6229 31.7556C37.0251 32.5852 35.6885 33 34.6131 33ZM45.6194 28.8059C44.882 28.8059 44.1446 28.5447 43.4072 28.0223C42.6697 27.5 42.2549 26.8855 42.1627 26.1788C41.8555 23.8128 43.3457 21.0014 46.6334 17.7444C49.8904 14.4874 52.8247 12.8589 55.4365 12.8589C56.1432 12.8589 56.6962 13.0279 57.0957 13.3659C57.3108 13.581 57.4644 13.8729 57.5566 14.2416C57.6795 14.6103 57.7717 14.7947 57.8331 14.7947C57.956 14.7947 58.0636 14.7793 58.1557 14.7486C58.2479 14.6872 58.3555 14.6564 58.4784 14.6564C58.8471 14.6564 59.1697 14.7947 59.4462 15.0712C59.7228 15.3478 59.8764 15.5936 59.9071 15.8087C59.9379 15.8701 58.9546 17.3911 56.9574 20.3715C54.9602 23.2905 54.0538 25.2723 54.2382 26.317C54.3918 27.0237 54.7298 27.3771 55.2521 27.3771C56.8499 27.3771 59.7689 24.7346 64.0091 19.4497C64.1013 19.3268 64.1934 19.2654 64.2856 19.2654C64.4393 19.2654 64.5161 19.3729 64.5161 19.588C64.5161 19.8338 64.3778 20.1411 64.1013 20.5098C60.199 25.764 57.2032 28.3911 55.1138 28.3911C54.8373 28.3911 54.5761 28.345 54.3303 28.2528C52.9784 27.7304 52.3024 26.7165 52.3024 25.2109C52.3024 24.6885 52.3639 24.1662 52.4868 23.6438L49.6292 26.4092C48.7689 27.2695 47.9854 27.8841 47.2787 28.2528C46.6027 28.6215 46.0496 28.8059 45.6194 28.8059ZM45.2046 27.7919C46.9868 27.7919 49.4141 25.8408 52.4868 21.9385L57.3722 15.2095C57.1264 14.7793 56.727 14.5642 56.1739 14.5642C54.2996 14.5642 51.7647 16.0698 48.5692 19.081C45.2507 22.1536 43.7605 24.6885 44.0985 26.6857C44.2521 27.4232 44.6208 27.7919 45.2046 27.7919ZM64.3828 28.8519C63.3996 28.8519 62.6161 28.6215 62.0323 28.1606C61.4792 27.669 61.2027 26.8087 61.2027 25.5796C61.2027 24.8729 61.4178 23.9818 61.8479 22.9064C62.2781 21.8003 62.8158 20.6173 63.4611 19.3575C64.1063 18.0978 64.7516 16.8534 65.3968 15.6243C64.9974 15.7165 64.644 15.7626 64.3368 15.7626C63.415 15.7626 62.9541 15.4092 62.9541 14.7025C62.9541 14.3645 63.077 14.1034 63.3228 13.919C63.5993 13.7346 63.8451 13.6271 64.0602 13.5964C64.0602 13.5964 64.0909 13.5964 64.1524 13.5964C64.2446 13.5964 64.3521 13.581 64.475 13.5503H67.1482C67.7013 12.8436 68.2697 12.0908 68.8535 11.2919C69.6831 10.2472 70.3437 9.63269 70.8354 9.44833H70.9736C71.1887 9.44833 71.496 9.55587 71.8954 9.77096C72.387 10.0475 72.6328 10.324 72.6328 10.6006C72.6328 11 71.8954 12.0293 70.4205 13.6886C70.6971 13.7193 71.0965 13.7346 71.6189 13.7346C72.1412 13.7346 72.7865 13.7346 73.5546 13.7346C73.9233 13.7346 74.4457 13.7346 75.1217 13.7346C75.8284 13.7346 76.5504 13.7346 77.2879 13.7346C78.056 13.7039 78.7166 13.6886 79.2697 13.6886C79.8228 13.6578 80.13 13.6425 80.1915 13.6425C80.2837 13.6732 80.3298 13.7193 80.3298 13.7807C80.3298 14.0573 78.5169 14.426 74.8912 14.8869C72.8326 15.1634 71.2502 15.3785 70.144 15.5321C69.0686 15.6858 68.4848 15.7779 68.3926 15.8087C67.9625 16.1774 67.4401 16.8073 66.8256 17.6983C66.2111 18.5894 65.5965 19.588 64.982 20.6941C64.3675 21.8003 63.8451 22.8603 63.415 23.8743C63.0155 24.8575 62.8158 25.6257 62.8158 26.1788C62.8158 26.6704 63.0002 27.0852 63.3689 27.4232C63.7376 27.7304 64.3368 27.8841 65.1664 27.8841C65.7194 27.8841 66.3801 27.7612 67.1482 27.5154C67.9164 27.2695 68.6384 26.993 69.3144 26.6857C70.0211 26.3478 70.5281 26.0866 70.8354 25.9022C71.6342 25.4106 72.5099 24.7654 73.4624 23.9665C74.4457 23.1369 75.4136 22.1997 76.3661 21.155C76.7962 20.7249 77.0881 20.5098 77.2418 20.5098C77.334 20.5098 77.38 20.5712 77.38 20.6941C77.38 20.9399 77.1496 21.3394 76.6887 21.8925C75.9513 22.7835 75.1217 23.6438 74.1999 24.4735C73.3088 25.2723 72.3102 26.0098 71.2041 26.6857C69.9443 27.4539 68.7306 28.007 67.563 28.345C66.4261 28.6829 65.3661 28.8519 64.3828 28.8519ZM84.6103 28.8059C83.2891 28.8059 82.3827 28.4679 81.891 27.7919C81.3994 27.0852 81.1536 26.148 81.1536 24.9804C81.1536 23.6899 81.553 22.1536 82.3519 20.3715C82.6592 19.6648 82.9818 19.0349 83.3198 18.4818C83.6578 17.898 84.0111 17.3603 84.3799 16.8687C84.257 16.8994 84.1494 16.9148 84.0572 16.9148C83.9651 16.9148 83.8729 16.9148 83.7807 16.9148C83.0433 16.9148 82.4287 16.3925 81.9371 15.3478L78.5265 19.7723C76.7137 22.1383 75.6075 23.3212 75.2081 23.3212C75.0544 23.3212 74.9776 23.2598 74.9776 23.1369C74.9776 22.9832 75.0544 22.7835 75.2081 22.5377C75.3003 22.3533 75.4846 22.1075 75.7612 21.8003C76.9287 20.4483 78.0042 19.1117 78.9874 17.7905C79.9706 16.4693 80.7849 15.1788 81.4301 13.919C82.1368 11.2458 83.0279 9.90923 84.1033 9.90923C84.81 9.90923 85.1634 10.2319 85.1634 10.8771C85.1634 11.4609 84.7793 12.2291 84.0111 13.1816C83.2737 14.1341 82.905 14.6257 82.905 14.6564C82.905 15.3017 83.3813 15.6243 84.3338 15.6243C84.8868 15.6243 85.5014 15.4246 86.1773 15.0251L87.3757 14.2877C87.4371 14.257 87.5293 14.2416 87.6522 14.2416C88.0209 14.2416 88.3435 14.3953 88.6201 14.7025C88.8966 15.0098 88.9888 15.2863 88.8966 15.5321L85.7164 19.5419C83.75 22.0614 82.7667 24.0894 82.7667 25.6257C82.7667 27.0084 83.4427 27.6997 84.7947 27.6997C85.7164 27.6997 86.6997 27.4232 87.7444 26.8701C88.8198 26.317 89.8491 25.6411 90.8324 24.8422C91.8463 24.0126 92.6913 23.2137 93.3673 22.4455L94.4734 21.155C94.5349 21.0936 94.6117 21.0168 94.7039 20.9246C94.796 20.8324 94.8729 20.7863 94.9343 20.7863C95.1494 20.7863 95.2569 20.8939 95.2569 21.1089C95.2569 21.1704 95.2262 21.2779 95.1648 21.4316C95.1033 21.5852 94.9958 21.7542 94.8421 21.9385L93.3673 23.5978C92.6606 24.3966 91.7849 25.2109 90.7402 26.0405C89.7262 26.8394 88.6662 27.5 87.56 28.0223C86.4846 28.5447 85.5014 28.8059 84.6103 28.8059ZM95.3286 28.6676C94.5604 28.6676 93.9613 28.3142 93.5311 27.6075C93.1009 26.8701 92.8859 26.1634 92.8859 25.4874C92.8859 23.6438 94.2225 21.0628 96.8956 17.7444C99.5995 14.3953 101.781 12.7207 103.44 12.7207C105.007 12.7207 105.791 13.5503 105.791 15.2095C105.791 15.4553 105.76 15.7165 105.699 15.993C105.668 16.2696 105.622 16.5615 105.56 16.8687C105.622 16.9609 105.776 17.007 106.021 17.007C106.851 17.007 107.834 16.7151 108.971 16.1313C108.94 16.6536 107.727 17.4064 105.33 18.3897C105.668 19.4036 104.654 21.3394 102.288 24.1969C99.8607 27.1774 97.7867 28.6676 96.066 28.6676H95.3286ZM96.1582 27.2849C97.4794 27.2849 99.1694 26.0712 101.228 23.6438C103.225 21.2779 104.224 19.5726 104.224 18.5279C103.732 18.2514 103.118 17.5447 102.38 16.4078C101.336 16.4078 99.83 17.6676 97.8635 20.1871C95.9278 22.6452 94.9906 24.5349 95.0521 25.8561C95.0828 26.8087 95.4515 27.2849 96.1582 27.2849ZM117.186 28.6676C116.449 28.6676 116.08 28.2528 116.08 27.4232C116.418 25.7025 117.11 23.7668 118.154 21.6159C118.646 20.5712 119.138 19.5419 119.629 18.5279C120.152 17.514 120.659 16.4846 121.15 15.4399C120.013 16.2081 118.876 17.0684 117.74 18.0209C116.603 18.9427 115.497 19.9874 114.421 21.155C113.161 22.507 111.702 24.243 110.043 26.3631C108.844 27.8687 108.153 28.6215 107.969 28.6215C107.538 28.6215 107.185 28.4218 106.909 28.0223C106.632 27.6229 106.494 27.2849 106.494 27.0084C106.494 26.6089 106.847 25.5796 107.554 23.9204C107.769 23.398 107.984 22.8911 108.199 22.3994C108.445 21.8771 108.675 21.3701 108.89 20.8785L106.125 23.7821C106.064 23.8436 105.879 24.0279 105.572 24.3352C105.265 24.6425 105.019 24.7961 104.835 24.7961C104.681 24.7961 104.604 24.6885 104.604 24.4735C104.604 24.412 104.635 24.3352 104.696 24.243C104.727 24.1201 104.819 23.9818 104.973 23.8282C105.434 23.3673 105.91 22.8757 106.402 22.3533C106.893 21.831 107.4 21.2318 107.923 20.5559C108.322 20.0335 108.89 19.2654 109.628 18.2514C110.396 17.2067 111.333 15.9008 112.439 14.3338C112.777 13.8729 113.254 13.6425 113.868 13.6425C114.483 13.6425 114.79 13.9344 114.79 14.5182C114.79 14.7332 114.006 16.162 112.439 18.8045C111.64 20.2179 110.995 21.3701 110.504 22.2612C110.043 23.1522 109.751 23.8128 109.628 24.243C110.304 23.5056 111.103 22.676 112.024 21.7542C112.977 20.8324 114.068 19.8031 115.297 18.6662C119.076 15.1634 121.565 13.412 122.763 13.412C123.101 13.412 123.424 13.5196 123.731 13.7346C124.069 13.9497 124.238 14.2263 124.238 14.5642C124.238 14.7179 123.639 15.8394 122.441 17.9288C121.273 20.0489 120.628 21.3087 120.505 21.7081C123.916 18.8506 125.621 17.4064 125.621 17.3757C128.509 15.1327 130.583 14.0112 131.843 14.0112C132.212 14.0112 132.55 14.1341 132.857 14.3799C133.195 14.595 133.364 14.8561 133.364 15.1634C133.364 15.2249 132.381 16.5154 130.414 19.0349C128.386 21.5852 127.249 23.6746 127.003 25.3031C126.881 26.4092 127.449 26.9623 128.709 26.9623C129.477 26.9623 130.552 26.4707 131.935 25.4874C133.318 24.5042 134.762 23.1522 136.267 21.4316C136.452 21.2165 136.652 21.0168 136.867 20.8324C137.082 20.6173 137.266 20.5098 137.42 20.5098C137.604 20.5098 137.696 20.5866 137.696 20.7402C137.696 20.9553 137.558 21.2011 137.281 21.4776C136.483 22.4302 135.53 23.4134 134.424 24.4274C133.348 25.4413 132.273 26.3017 131.198 27.0084C130.122 27.6843 129.17 28.0223 128.34 28.0223C126.251 28.0223 125.206 27.0545 125.206 25.1187C125.206 24.4427 125.39 23.6592 125.759 22.7682C126.128 21.8464 126.497 21.0168 126.865 20.2793C127.756 18.5587 128.724 17.0377 129.769 15.7165C128.786 16.2081 127.756 16.8534 126.681 17.6522C125.636 18.4511 124.545 19.3883 123.409 20.4637C120.766 23.0447 118.953 25.6564 117.97 28.2989C117.816 28.5447 117.555 28.6676 117.186 28.6676ZM138.473 28.8059C137.736 28.8059 136.998 28.5447 136.261 28.0223C135.524 27.5 135.109 26.8855 135.017 26.1788C134.709 23.8128 136.2 21.0014 139.487 17.7444C142.744 14.4874 145.679 12.8589 148.29 12.8589C148.997 12.8589 149.55 13.0279 149.95 13.3659C150.165 13.581 150.318 13.8729 150.41 14.2416C150.533 14.6103 150.625 14.7947 150.687 14.7947C150.81 14.7947 150.917 14.7793 151.01 14.7486C151.102 14.6872 151.209 14.6564 151.332 14.6564C151.701 14.6564 152.024 14.7947 152.3 15.0712C152.577 15.3478 152.73 15.5936 152.761 15.8087C152.792 15.8701 151.808 17.3911 149.811 20.3715C147.814 23.2905 146.908 25.2723 147.092 26.317C147.246 27.0237 147.584 27.3771 148.106 27.3771C149.704 27.3771 152.623 24.7346 156.863 19.4497C156.955 19.3268 157.047 19.2654 157.139 19.2654C157.293 19.2654 157.37 19.3729 157.37 19.588C157.37 19.8338 157.232 20.1411 156.955 20.5098C153.053 25.764 150.057 28.3911 147.968 28.3911C147.691 28.3911 147.43 28.345 147.184 28.2528C145.832 27.7304 145.156 26.7165 145.156 25.2109C145.156 24.6885 145.218 24.1662 145.341 23.6438L142.483 26.4092C141.623 27.2695 140.839 27.8841 140.132 28.2528C139.456 28.6215 138.903 28.8059 138.473 28.8059ZM138.058 27.7919C139.841 27.7919 142.268 25.8408 145.341 21.9385L150.226 15.2095C149.98 14.7793 149.581 14.5642 149.028 14.5642C147.153 14.5642 144.619 16.0698 141.423 19.081C138.105 22.1536 136.614 24.6885 136.952 26.6857C137.106 27.4232 137.475 27.7919 138.058 27.7919Z" fill="#E4E4E7"/>
</svg>
